# xmcd CD database file
#
# Track frame offsets:
#	150
#	185541
#	215173
#	236145
#	240305
#	243811
#	249278
#	253618
#	257958
#	263421
#	268884
#	273928
#	279085
#	283210
#	292752
#
# Disc length: 4019 seconds
#
# Revision: 0
# Processed by: cddbd v1.5.1PL0 Copyright (c) Steve Scherf et al.
# Submitted via: CDex 1.51
#
DISCID=dd0fb10f
DTITLE=ロケットアイスクリーム - 月のあかり 猫のひとみ
DYEAR=1900
DGENRE=未分類 (一般)
TTITLE0=データトラック
TTITLE1=街の余韻
TTITLE2=月のあかり猫のひとみ
TTITLE3=あたりまえの時
TTITLE4=一人になった日
TTITLE5=月のちから
TTITLE6=ホントの会話
TTITLE7=ナビゲーション
TTITLE8=弱いひかりの中を歩く
TTITLE9=こぼしちゃだめだ
TTITLE10=ほんとう?
TTITLE11=もう一度、ただいま〜月のあかり猫のひとみ Inst.
TTITLE12=いまから電話をしよう
TTITLE13=街の余韻 TV Size
TTITLE14=月のあかり猫のひとみ TV Size
EXTD=
EXTT0=
EXTT1=
EXTT2=
EXTT3=
EXTT4=
EXTT5=
EXTT6=
EXTT7=
EXTT8=
EXTT9=
EXTT10=
EXTT11=
EXTT12=
EXTT13=
EXTT14=
PLAYORDER=
